<svg xmlns="http://www.w3.org/2000/svg" xmlns:xlink="http://www.w3.org/1999/xlink" viewBox="0 0 64 64"><radialGradient id="OjD2PGDTCKsL1rmS_J4Ysa" cx="32.5" cy="31.5" r="30.516" gradientUnits="userSpaceOnUse" spreadMethod="reflect"><stop offset="0" stop-color="#afeeff"/><stop offset=".193" stop-color="#bbf1ff"/><stop offset=".703" stop-color="#d7f8ff"/><stop offset="1" stop-color="#e1faff"/></radialGradient><path fill="url(#OjD2PGDTCKsL1rmS_J4Ysa)" d="M59,20h1.5c2.168,0,3.892-1.998,3.422-4.243C63.58,14.122,62.056,13,60.385,13L53,13 c-1.105,0-2-0.895-2-2c0-1.105,0.895-2,2-2h3.385c1.67,0,3.195-1.122,3.537-2.757C60.392,3.998,58.668,2,56.5,2H34.006H32.5h-24 C6.575,2,5,3.575,5,5.5S6.575,9,8.5,9H10c1.105,0,2,0.895,2,2c0,1.105-0.895,2-2,2l-5.385,0c-1.67,0-3.195,1.122-3.537,2.757 C0.608,18.002,2.332,20,4.5,20H18v12L4.615,32c-1.67,0-3.195,1.122-3.537,2.757C0.608,37.002,2.332,39,4.5,39H5c1.105,0,2,0.895,2,2 c0,1.105-0.895,2-2,2H4.5c-2.168,0-3.892,1.998-3.422,4.243C1.42,48.878,2.945,50,4.615,50H10c1.105,0,2,0.895,2,2 c0,1.105-0.895,2-2,2l-1.385,0c-1.67,0-3.195,1.122-3.537,2.757C4.608,59.002,6.332,61,8.5,61h22.494H32.5h23 c1.925,0,3.5-1.575,3.5-3.5S57.425,54,55.5,54H55c-1.105,0-2-0.895-2-2c0-1.105,0.895-2,2-2h4.385c1.67,0,3.195-1.122,3.537-2.757 C63.392,44.998,61.668,43,59.5,43H47V31h12.385c1.67,0,3.195-1.122,3.537-2.757C63.392,25.998,61.668,24,59.5,24H59 c-1.105,0-2-0.895-2-2C57,20.895,57.895,20,59,20z"/><linearGradient id="OjD2PGDTCKsL1rmS_J4Ysb" x1="32" x2="32" y1="6" y2="56" gradientUnits="userSpaceOnUse" spreadMethod="reflect"><stop offset="0" stop-color="#42d778"/><stop offset=".996" stop-color="#34b171"/><stop offset="1" stop-color="#34b171"/></linearGradient><path fill="url(#OjD2PGDTCKsL1rmS_J4Ysb)" d="M57,31c0,13.805-11.195,25-25,25S7,44.805,7,31S18.195,6,32,6S57,17.195,57,31z"/><path fill="#fff" d="M23.654 23c2.839 0 5.828 1.268 5.828 3.416 0 .976-.616 1.728-1.58 1.728-2.13 0-1.437-2.196-4.248-2.196-1.949 0-3.591 1.443-3.591 5.001 0 3.578 1.663 5.062 3.55 5.062 2.155 0 3.181-1.463 3.181-2.988V32.86h-2.135c-.739 0-1.354-.61-1.354-1.362 0-.732.616-1.342 1.354-1.342h3.981c1.129 0 1.744.61 1.744 1.728v5.387c0 1.078-.718 1.565-1.601 1.565-.779 0-1.58-.484-1.58-1.565v-.264h-.206C26.116 38.288 24.967 39 22.812 39 18.811 39 16 36.215 16 31.193 16 26.05 19.16 23 23.654 23zM40.407 23C45.189 23 48 26.172 48 30.99c0 4.839-2.873 8.01-7.633 8.01-4.781 0-7.593-3.172-7.593-8.01C32.774 26.192 35.646 23 40.407 23zM40.387 35.91c1.97 0 3.468-1.443 3.468-4.921 0-3.476-1.498-4.899-3.468-4.899-1.97 0-3.468 1.423-3.468 4.899C36.919 34.467 38.417 35.91 40.387 35.91z"/></svg>